<svg width="100" height="100" viewBox="0 0 100 100" xmlns="http://www.w3.org/2000/svg">
    <!-- Circle with a simple gradient to suggest depth -->
    <defs>
        <radialGradient id="grad1" cx="50%" cy="50%" r="50%" fx="50%" fy="50%">
            <stop offset="0%" style="stop-color:rgb(240,240,255);stop-opacity:1" />
            <stop offset="100%" style="stop-color:rgb(220,220,255);stop-opacity:1" />
        </radialGradient>
    </defs>
    <circle cx="50" cy="50" r="45" stroke="#D1D5DB" stroke-width="1.5" fill="url(#grad1)" />
    
    <!-- Book -->
    <path d="M20 75 Q 50 60, 80 75 L 80 30 Q 50 45, 20 30 Z" fill="#2563EB" />
    <path d="M50 32 V 73" stroke="#1E40AF" stroke-width="2" />
    <path d="M20 30 Q 50 45, 80 30" stroke="#1E40AF" stroke-width="2" fill="none" />

    <!-- Heart -->
    <path d="M50 35 C 40 20, 25 25, 30 45 L 50 65 L 70 45 C 75 25, 60 20, 50 35 Z" fill="#DC2626" />
    
    <!-- Molecule -->
    <g fill="#F59E0B" stroke="#F59E0B" stroke-width="1.5">
        <circle cx="50" cy="22" r="5" />
        <circle cx="38" cy="29" r="3" />
        <circle cx="62" cy="29" r="3" />
        <line x1="50" y1="22" x2="38" y2="29" />
        <line x1="50" y1="22" x2="62" y2="29" />
    </g>
</svg>
